<svg width="35" height="35" viewBox="0 0 35 35" fill="none" xmlns="http://www.w3.org/2000/svg">
<g id="menu (1) 1">
<g id="Group">
<path id="Vector" d="M30.625 10.2084H4.37496C3.49996 10.2084 2.91663 9.62508 2.91663 8.75008C2.91663 7.87508 3.49996 7.29175 4.37496 7.29175H30.625C31.5 7.29175 32.0833 7.87508 32.0833 8.75008C32.0833 9.62508 31.5 10.2084 30.625 10.2084Z" fill="#121D2A"/>
</g>
<g id="Group_2">
<path id="Vector_2" d="M30.625 18.9584H4.37496C3.49996 18.9584 2.91663 18.3751 2.91663 17.5001C2.91663 16.6251 3.49996 16.0417 4.37496 16.0417H30.625C31.5 16.0417 32.0833 16.6251 32.0833 17.5001C32.0833 18.3751 31.5 18.9584 30.625 18.9584Z" fill="#121D2A"/>
</g>
<g id="Group_3">
<path id="Vector_3" d="M30.625 27.7084H4.37496C3.49996 27.7084 2.91663 27.1251 2.91663 26.2501C2.91663 25.3751 3.49996 24.7917 4.37496 24.7917H30.625C31.5 24.7917 32.0833 25.3751 32.0833 26.2501C32.0833 27.1251 31.5 27.7084 30.625 27.7084Z" fill="#121D2A"/>
</g>
</g>
</svg>
