<svg width="164" height="38" viewBox="0 0 164 38" fill="none" xmlns="http://www.w3.org/2000/svg">
<g id="_1" clip-path="url(#clip0_3_207)">
<g id="Group">
<g id="Group_2">
<path id="Vector" d="M71.258 1.22803H73.9627C74.5036 1.22803 74.9636 1.32932 75.347 1.52767C75.7303 1.72603 76.0199 2.00879 76.2159 2.36752C76.4118 2.72625 76.5097 3.13562 76.5097 3.59986C76.5097 4.0641 76.4118 4.46925 76.2116 4.82376C76.0114 5.17827 75.7218 5.45681 75.3342 5.65939C74.9466 5.86197 74.4823 5.96326 73.9371 5.96326H72.1397V4.89973H73.7625C74.0819 4.89973 74.346 4.84486 74.559 4.73514C74.772 4.62541 74.9253 4.47347 75.0275 4.27934C75.1297 4.0852 75.1808 3.86152 75.1808 3.59986C75.1808 3.3382 75.1255 3.10608 75.0275 2.91617C74.9295 2.72625 74.772 2.57432 74.559 2.46459C74.346 2.35486 74.0819 2.30422 73.7582 2.30422H72.5486V8.38574H71.2495V1.22803H71.258Z" fill="#121D2A"/>
<path id="Vector_2" d="M77.3105 1.22803H80.0151C80.5561 1.22803 81.0203 1.32087 81.4037 1.51079C81.787 1.70071 82.0766 1.96659 82.2726 2.31266C82.4685 2.65872 82.5665 3.05966 82.5665 3.51968C82.5665 3.97969 82.4685 4.38063 82.2726 4.71403C82.0766 5.04744 81.787 5.3091 81.3994 5.4948C81.0118 5.68049 80.5476 5.77334 79.9981 5.77334H78.0601V4.69715H79.8235C80.1472 4.69715 80.4113 4.65073 80.6242 4.5621C80.8372 4.47347 80.9905 4.33842 81.0885 4.16961C81.1865 4.0008 81.2418 3.78556 81.2418 3.52812C81.2418 3.27068 81.1865 3.05122 81.0885 2.86974C80.9905 2.68827 80.8329 2.549 80.62 2.45615C80.407 2.3633 80.1429 2.31688 79.8192 2.31688H78.6096V8.3984H77.3105V1.22803ZM82.8263 8.38996H81.3696L79.619 5.14873H81.0416L82.8305 8.38996H82.8263Z" fill="#121D2A"/>
<path id="Vector_3" d="M89.4495 6.76956C89.1641 7.32242 88.7723 7.74868 88.2697 8.0441C87.7671 8.33953 87.1963 8.48724 86.5617 8.48724C85.9271 8.48724 85.3521 8.33953 84.8537 8.0441C84.3554 7.74868 83.9635 7.32242 83.6739 6.76956C83.3843 6.21669 83.2437 5.55832 83.2437 4.8071C83.2437 4.05587 83.3885 3.3975 83.6739 2.84041C83.9593 2.28333 84.3511 1.86129 84.8537 1.56587C85.3563 1.27044 85.9228 1.12695 86.5617 1.12695C87.2006 1.12695 87.7671 1.27467 88.2697 1.56587C88.7723 1.85707 89.1641 2.28333 89.4495 2.84041C89.7349 3.3975 89.8754 4.05165 89.8754 4.8071C89.8754 5.56254 89.7349 6.21669 89.4495 6.76956ZM88.3208 3.43548C88.1547 3.05565 87.9162 2.76867 87.6138 2.57453C87.3113 2.3804 86.9578 2.28333 86.5617 2.28333C86.1656 2.28333 85.8163 2.3804 85.5139 2.57453C85.2115 2.76867 84.973 3.05565 84.8069 3.43548C84.6408 3.81531 84.5513 4.27111 84.5513 4.8071C84.5513 5.34308 84.6365 5.79466 84.8069 6.17027C84.9772 6.54588 85.2115 6.83286 85.5139 7.03122C85.8163 7.22957 86.1656 7.32664 86.5617 7.32664C86.9578 7.32664 87.3113 7.22957 87.6138 7.03122C87.9162 6.83286 88.1504 6.54588 88.3208 6.17027C88.4912 5.79466 88.5721 5.33886 88.5721 4.8071C88.5721 4.27533 88.4869 3.81531 88.3208 3.43548Z" fill="#121D2A"/>
<path id="Vector_4" d="M94.927 1.22803V6.2629C94.927 6.7187 94.8247 7.11119 94.6331 7.44882C94.4414 7.78645 94.1688 8.03967 93.8153 8.22114C93.4618 8.40262 93.0571 8.49124 92.5929 8.49124C92.1627 8.49124 91.7793 8.41528 91.4428 8.26335C91.1064 8.11141 90.838 7.88351 90.6421 7.58387C90.4462 7.28422 90.3482 6.92128 90.3482 6.49502H91.6473C91.6473 6.68494 91.6941 6.85375 91.7793 6.99302C91.8645 7.13229 91.9795 7.24202 92.1243 7.31799C92.2691 7.39395 92.4438 7.43194 92.6397 7.43194C92.8484 7.43194 93.0273 7.38551 93.1721 7.29689C93.3169 7.20826 93.4319 7.07743 93.5086 6.90439C93.5853 6.73136 93.6236 6.52034 93.6236 6.26712V1.22803H94.9227H94.927Z" fill="#121D2A"/>
<path id="Vector_5" d="M96.0216 1.22803H100.72V2.31266H97.3207V4.2709H100.477V5.34286H97.3207V7.30533H100.741V8.38996H96.0259V1.22803H96.0216Z" fill="#121D2A"/>
<path id="Vector_6" d="M106.261 2.91206C106.099 2.70948 105.899 2.55333 105.656 2.4436C105.413 2.33387 105.145 2.28322 104.847 2.28322C104.451 2.28322 104.101 2.38029 103.795 2.57865C103.488 2.777 103.254 3.06399 103.079 3.4396C102.905 3.81521 102.824 4.27523 102.824 4.80277C102.824 5.33031 102.909 5.79877 103.079 6.17438C103.25 6.54999 103.488 6.83698 103.791 7.03111C104.093 7.22525 104.442 7.32654 104.838 7.32654C105.128 7.32654 105.392 7.27589 105.639 7.17039C105.886 7.06488 106.082 6.91716 106.244 6.71881C106.406 6.52045 106.512 6.28411 106.572 6.00979H107.884C107.816 6.47825 107.645 6.89606 107.377 7.26745C107.109 7.63884 106.755 7.93849 106.316 8.15373C105.878 8.36896 105.379 8.47869 104.826 8.47869C104.187 8.47869 103.616 8.33098 103.118 8.03556C102.619 7.74013 102.227 7.31388 101.946 6.76101C101.665 6.20815 101.52 5.54977 101.52 4.79855C101.52 4.04733 101.665 3.38895 101.951 2.83187C102.236 2.27478 102.628 1.85275 103.126 1.55732C103.624 1.2619 104.191 1.11841 104.826 1.11841C105.358 1.11841 105.844 1.21548 106.282 1.41383C106.721 1.61219 107.079 1.89917 107.356 2.279C107.632 2.65883 107.811 3.10619 107.888 3.62951H106.576C106.525 3.35097 106.423 3.10619 106.261 2.90361V2.91206Z" fill="#121D2A"/>
<path id="Vector_7" d="M108.429 1.2281H114.196V2.31273H111.964V8.39003H110.669V2.30851H108.429V1.22388V1.2281Z" fill="#121D2A"/>
<path id="Vector_8" d="M117.467 4.52413C117.348 4.45661 117.254 4.35954 117.186 4.24137C117.118 4.1232 117.084 3.99237 117.088 3.85732C117.088 3.72227 117.118 3.59566 117.186 3.47749C117.254 3.35932 117.348 3.26647 117.467 3.19894C117.586 3.13142 117.714 3.09766 117.859 3.09766C118.004 3.09766 118.123 3.13142 118.242 3.19894C118.362 3.26647 118.455 3.35932 118.523 3.47749C118.592 3.59566 118.63 3.72227 118.63 3.85732C118.63 3.99237 118.596 4.1232 118.523 4.24137C118.451 4.35954 118.362 4.45239 118.242 4.52413C118.123 4.59588 117.995 4.62964 117.859 4.62964C117.723 4.62964 117.586 4.59588 117.467 4.52413ZM117.467 8.36043C117.348 8.2929 117.254 8.19583 117.186 8.07767C117.118 7.9595 117.084 7.82866 117.088 7.69361C117.088 7.55856 117.118 7.43195 117.186 7.31378C117.254 7.19561 117.348 7.10277 117.467 7.03524C117.586 6.96771 117.714 6.93395 117.859 6.93395C118.004 6.93395 118.123 6.96771 118.242 7.03524C118.362 7.10277 118.455 7.19561 118.523 7.31378C118.592 7.43195 118.63 7.55856 118.63 7.69361C118.63 7.82866 118.596 7.9595 118.523 8.07767C118.451 8.19583 118.362 8.28868 118.242 8.36043C118.123 8.43217 117.995 8.46594 117.859 8.46594C117.723 8.46594 117.586 8.43217 117.467 8.36043Z" fill="#121D2A"/>
<path id="Vector_9" d="M78.9589 16.1807C78.7288 15.8684 78.435 15.6279 78.0729 15.4633C77.7109 15.2987 77.3062 15.2143 76.8505 15.2143C76.2372 15.2143 75.7005 15.3662 75.249 15.6659C74.7975 15.9697 74.444 16.4044 74.1884 16.9784C73.9329 17.5524 73.8094 18.2403 73.8094 19.0421C73.8094 19.844 73.9371 20.553 74.1884 21.1228C74.4397 21.6925 74.7933 22.123 75.2447 22.4226C75.6962 22.7181 76.2201 22.87 76.8249 22.8742C77.2722 22.87 77.6768 22.7856 78.0346 22.6294C78.3924 22.4733 78.6905 22.2454 78.9248 21.95C79.159 21.6545 79.3166 21.3 79.3976 20.8864L81.8637 20.9118C81.7657 21.6419 81.5016 22.3213 81.0715 22.9417C80.6413 23.5621 80.0577 24.0643 79.3252 24.44C78.5926 24.8156 77.7492 25.0055 76.7951 25.0055C75.7431 25.0055 74.806 24.7691 73.984 24.2965C73.1619 23.8238 72.5188 23.1359 72.0503 22.2369C71.586 21.338 71.3517 20.2745 71.3517 19.0421C71.3517 17.8098 71.586 16.742 72.0588 15.8431C72.5316 14.9442 73.179 14.2563 74.001 13.7878C74.8231 13.3193 75.7559 13.083 76.7951 13.083C77.6938 13.083 78.5116 13.2476 79.2357 13.5768C79.964 13.906 80.5561 14.3871 81.0118 15.0244C81.4676 15.6616 81.7529 16.4171 81.8637 17.2907H79.3976C79.3337 16.8644 79.1846 16.493 78.9546 16.1807H78.9589Z" fill="#121D2A"/>
<path id="Vector_10" d="M83.15 13.2434H85.5778V22.8574H90.6165V24.8451H83.15V13.2434Z" fill="#121D2A"/>
<path id="Vector_11" d="M101.316 22.2412C100.843 23.1401 100.196 23.8238 99.3652 24.2965C98.5388 24.7691 97.6018 25.0055 96.554 25.0055C95.5062 25.0055 94.5734 24.7691 93.7429 24.2965C92.9123 23.8238 92.2649 23.1359 91.7921 22.2369C91.3193 21.338 91.0851 20.2745 91.0851 19.0421C91.0851 17.8098 91.3193 16.742 91.7921 15.8431C92.2649 14.9442 92.9123 14.2563 93.7429 13.7878C94.5734 13.3193 95.5062 13.083 96.554 13.083C97.6018 13.083 98.5388 13.3193 99.3652 13.7878C100.191 14.2563 100.843 14.9442 101.316 15.8431C101.789 16.742 102.023 17.8098 102.023 19.0421C102.023 20.2745 101.789 21.3422 101.316 22.2412ZM99.199 16.9615C98.952 16.3918 98.6027 15.9571 98.1513 15.6616C97.6998 15.3662 97.1674 15.2185 96.5583 15.2185C95.9492 15.2185 95.4296 15.3662 94.9781 15.6616C94.5266 15.9571 94.1773 16.3918 93.926 16.9615C93.6747 17.5313 93.5512 18.2276 93.5512 19.0464C93.5512 19.8651 93.6747 20.5488 93.926 21.1185C94.1773 21.6883 94.5266 22.123 94.9781 22.4226C95.4296 22.7223 95.9535 22.8742 96.5583 22.8784C97.1674 22.8742 97.6998 22.7223 98.1513 22.4226C98.6027 22.123 98.952 21.6883 99.199 21.1185C99.4461 20.5488 99.5653 19.8609 99.5653 19.0464C99.5653 18.2318 99.4418 17.5355 99.199 16.9615Z" fill="#121D2A"/>
<path id="Vector_12" d="M113.055 13.2434V20.7852C113.055 21.625 112.854 22.3636 112.45 23.0009C112.049 23.6381 111.479 24.1319 110.742 24.4822C110.005 24.8325 109.162 25.0055 108.207 25.0055C107.253 25.0055 106.397 24.8283 105.669 24.4822C104.941 24.1319 104.374 23.6381 103.974 23.0009C103.573 22.3636 103.369 21.625 103.369 20.7852V13.2434H105.797V20.5826C105.797 21.0257 105.895 21.4224 106.095 21.7685C106.295 22.1146 106.576 22.3889 106.938 22.5915C107.3 22.7898 107.722 22.8911 108.203 22.8911C108.684 22.8911 109.098 22.7898 109.468 22.5915C109.839 22.3931 110.12 22.1188 110.312 21.7685C110.503 21.4182 110.605 21.0257 110.61 20.5826V13.2434H113.046H113.055Z" fill="#121D2A"/>
<path id="Vector_13" d="M117.037 24.8494H114.609V13.2476H117.037V24.8494ZM115.695 24.8494V22.7814H118.63C119.38 22.7814 120.006 22.6463 120.508 22.3805C121.011 22.1146 121.39 21.7052 121.646 21.1523C121.897 20.6037 122.025 19.8989 122.025 19.0379C122.025 18.177 121.897 17.4806 121.641 16.9278C121.386 16.3749 121.007 15.9655 120.508 15.7039C120.01 15.4422 119.388 15.3114 118.643 15.3114H115.636V13.2434H118.766C119.938 13.2434 120.951 13.4713 121.807 13.9313C122.664 14.3913 123.319 15.0582 123.775 15.9318C124.231 16.8054 124.457 17.8394 124.457 19.0379C124.457 20.2365 124.227 21.2747 123.771 22.1483C123.315 23.022 122.655 23.6888 121.795 24.153C120.934 24.6172 119.912 24.8494 118.732 24.8494H115.691H115.695Z" fill="#121D2A"/>
<path id="Vector_14" d="M124.823 13.2434H134.415V15.2312H130.824V24.8451H128.422V15.2312H124.823V13.2434Z" fill="#121D2A"/>
<path id="Vector_15" d="M133.435 24.8495L137.477 13.2478H140.599L144.65 24.8495H142.039L139.087 15.8644H138.989L136.029 24.8495H133.435ZM142.154 20.2916V22.1738H135.901V20.2916H142.154Z" fill="#121D2A"/>
<path id="Vector_16" d="M145.566 13.2434H147.994V22.8574H153.032V24.8451H145.566V13.2434Z" fill="#121D2A"/>
<path id="Vector_17" d="M154.191 13.2434H156.619V18.388H156.772L161.027 13.2434H163.953L159.579 18.4344L164.004 24.8451H161.087L157.845 20.0466L156.623 21.5279V24.8451H154.195V13.2434H154.191Z" fill="#121D2A"/>
</g>
<g id="Group_3">
<path id="Vector_18" d="M77.0592 37.2867H71.6371V36.6832H77.0592V37.2867ZM76.5822 33.2436H72.0758V32.657H76.5822V33.2436ZM76.5609 35.6872H72.1014V35.109H76.5609V35.6872ZM73.6645 35.1723H72.9319V33.1845H73.6645V35.1723ZM75.7175 35.1723H74.9977V33.1845H75.7175V35.1723Z" fill="#121D2A"/>
<path id="Vector_19" d="M82.6985 37.3122H77.2764V36.7171H82.6985V37.3122ZM82.0511 34.4044H78.6437V35.4721H77.9153V33.8346H81.3313V33.1003H77.9025V32.5137H82.0468V34.4044H82.0511ZM82.1917 35.7549H77.9153V35.1683H82.1917V35.7549ZM80.3304 36.9704H79.6105V35.5565H80.3304V36.9704Z" fill="#121D2A"/>
<path id="Vector_20" d="M84.4661 34.3114C84.3681 34.6068 84.2191 34.8685 84.0146 35.0964C83.8102 35.3243 83.5589 35.5016 83.2565 35.6239L82.8731 35.0584C83.1287 34.9571 83.3459 34.8221 83.5248 34.6406C83.7037 34.4634 83.8315 34.265 83.9167 34.0498C84.0019 33.8345 84.0444 33.6108 84.0444 33.3787V32.9525H84.6194V33.3787C84.6194 33.7079 84.5683 34.0202 84.4704 34.3156L84.4661 34.3114ZM85.6885 33.1424H83.0393V32.56H85.6885V33.1424ZM87.9928 37.9873H87.2687V36.506H83.9252V35.9278H87.9886V37.9873H87.9928ZM84.8707 34.0033C84.9517 34.2059 85.0752 34.3874 85.2456 34.5478C85.4159 34.7081 85.6161 34.8432 85.8632 34.9403L85.4926 35.4931C85.203 35.3792 84.9602 35.2146 84.7643 34.9993C84.5683 34.7841 84.4235 34.5351 84.3298 34.2566C84.2361 33.978 84.1893 33.6868 84.1893 33.3745V32.944H84.7515V33.3745C84.7515 33.5897 84.7941 33.8008 84.875 33.9991L84.8707 34.0033ZM86.3828 34.1764H85.3861V33.5897H86.3828V34.1764ZM86.8215 35.6577H86.123V32.2308H86.8215V35.6577ZM87.9886 35.6999H87.2943V32.1084H87.9886V35.6999Z" fill="#121D2A"/>
<path id="Vector_21" d="M93.9857 37.2783H88.5636V36.6874H93.9857V37.2783ZM93.3297 33.1634H89.9606V35.3538H89.2195V32.5684H93.3297V33.1592V33.1634ZM93.3808 35.7716H89.2195V35.1976H93.3808V35.7716ZM93.1934 34.4338H89.7391V33.864H93.1934V34.4338Z" fill="#121D2A"/>
<path id="Vector_22" d="M101.039 35.5692H95.634V34.9825H101.039V35.5692ZM100.025 33.0538H96.2729V32.4714H100.025V33.0538ZM98.6837 38.0001H97.9468V35.3835H98.6837V38.0001ZM100.379 33.0285C100.379 33.3028 100.379 33.5434 100.366 33.7502C100.358 33.957 100.336 34.1933 100.302 34.4634C100.268 34.7335 100.213 35.0205 100.145 35.3328L99.4205 35.2526C99.4887 34.9572 99.5398 34.6787 99.5696 34.417C99.5994 34.1554 99.625 33.9275 99.6335 33.7291C99.642 33.5307 99.6463 33.2944 99.6463 33.0243V32.4714H100.375V33.0285H100.379Z" fill="#121D2A"/>
<path id="Vector_23" d="M106.695 35.6831H101.273V35.1049H106.695V35.6831ZM106.027 33.7459H102.683V34.4338H101.959V33.2184H105.29V32.8006H101.942V32.2393H106.027V33.7459ZM106.142 34.7208H101.959V34.1722H106.142V34.7208ZM106.039 37.9198H101.98V36.1009H106.039V37.9198ZM102.696 37.3374H105.32V36.6791H102.696V37.3374Z" fill="#121D2A"/>
<path id="Vector_24" d="M112.322 35.8265H106.904V35.2525H112.322V35.8265ZM111.64 37.9873H110.904V36.8099H107.517V36.2359H111.645V37.9873H111.64ZM111.675 32.8174H108.331V34.4802H107.598V32.2561H111.675V32.8174ZM111.717 34.7503H107.598V34.2017H111.717V34.7503ZM111.525 33.767H108.114V33.2226H111.525V33.767ZM109.971 35.4171H109.242V34.5182H109.971V35.4171Z" fill="#121D2A"/>
<path id="Vector_25" d="M116.117 37.4177H115.257V33.535H115.231L114.119 34.2397V33.4632L115.299 32.7078H116.121V37.4177H116.117Z" fill="#121D2A"/>
<path id="Vector_26" d="M117.109 37.4008C117.033 37.3544 116.969 37.2953 116.922 37.2151C116.875 37.1349 116.854 37.0505 116.858 36.9619C116.858 36.8732 116.879 36.7888 116.922 36.7129C116.969 36.6369 117.028 36.5736 117.109 36.5314C117.186 36.4892 117.271 36.4639 117.369 36.4639C117.459 36.4639 117.544 36.485 117.62 36.5314C117.697 36.5778 117.761 36.6369 117.808 36.7129C117.855 36.7888 117.876 36.8732 117.876 36.9619C117.876 37.0505 117.855 37.1391 117.808 37.2151C117.761 37.2911 117.701 37.3544 117.62 37.4008C117.544 37.4472 117.459 37.4683 117.369 37.4683C117.275 37.4683 117.19 37.4472 117.109 37.4008Z" fill="#121D2A"/>
<path id="Vector_27" d="M119.094 37.198C118.822 37.0081 118.613 36.7338 118.468 36.3709C118.323 36.0079 118.251 35.5732 118.251 35.0625C118.251 34.5519 118.323 34.1214 118.468 33.7585C118.613 33.3955 118.822 33.117 119.094 32.927C119.367 32.7371 119.695 32.6443 120.074 32.6443C120.453 32.6443 120.777 32.7371 121.053 32.927C121.33 33.117 121.539 33.3913 121.684 33.7585C121.829 34.1214 121.901 34.5561 121.901 35.0625C121.901 35.569 121.829 36.0121 121.688 36.3751C121.543 36.738 121.335 37.0123 121.062 37.2023C120.789 37.3922 120.461 37.485 120.078 37.485C119.695 37.485 119.371 37.3922 119.098 37.2023L119.094 37.198ZM120.589 36.5776C120.734 36.4468 120.845 36.2569 120.921 36.0037C120.998 35.7505 121.036 35.4382 121.036 35.0668C121.036 34.6954 120.998 34.3873 120.921 34.1299C120.845 33.8724 120.734 33.6783 120.589 33.5474C120.444 33.4166 120.274 33.3491 120.074 33.3491C119.874 33.3491 119.703 33.4166 119.558 33.5474C119.414 33.6783 119.303 33.8724 119.226 34.1299C119.15 34.3873 119.107 34.6996 119.107 35.0668C119.107 35.4339 119.145 35.7505 119.226 36.0037C119.307 36.2569 119.414 36.451 119.558 36.5776C119.703 36.7043 119.874 36.7718 120.074 36.7718C120.274 36.7718 120.444 36.7085 120.589 36.5776Z" fill="#121D2A"/>
</g>
</g>
<g id="Group_4">
<path id="Vector_28" d="M50.7155 22.1948C50.8347 21.3929 50.8901 20.5953 50.8901 19.8272C50.8901 16.6619 50.0042 13.6191 48.3345 11.032C47.1589 9.20879 45.6 7.66415 43.8197 6.56264C40.9617 4.79431 37.5372 4.20346 34.3086 4.9378C32.1534 1.83585 28.7971 0 25.2406 0C19.6354 0 14.9203 4.42292 13.9875 10.4158C13.1059 10.1753 12.2029 10.0486 11.2871 10.0486C5.06005 10.0486 0 15.6533 0 22.5409C0 25.5078 0.962601 28.386 2.72595 30.665C3.38188 31.5133 4.13578 32.2603 4.95782 32.8807C6.83191 34.2861 9.02119 35.0331 11.2829 35.0331L39.5987 34.7672L39.7733 34.7419C43.1339 34.7461 61.9472 35.0331 62.8161 34.4591C63.8384 33.7839 50.0808 26.4278 50.7197 22.199L50.7155 22.1948Z" fill="#121D2A"/>
<g id="Group_5">
<path id="Vector_29" d="M36.3659 31.1588H34.8581V25.4106H34.8198L33.1671 26.4488V25.1237L34.956 23.9968H36.3701V31.1588H36.3659Z" fill="#FFD5C8"/>
<path id="Vector_30" d="M37.8609 31.1376C37.7331 31.0616 37.6309 30.9603 37.5542 30.8337C37.4776 30.7071 37.4435 30.5636 37.4477 30.4117C37.4477 30.264 37.4818 30.1247 37.5542 30.0023C37.6266 29.8799 37.7331 29.7786 37.8609 29.7069C37.9887 29.6352 38.1292 29.5972 38.2783 29.5972C38.4274 29.5972 38.5637 29.6352 38.6915 29.7069C38.8192 29.7786 38.9215 29.8799 38.9981 30.0065C39.0748 30.1332 39.1131 30.2682 39.1174 30.4159C39.1174 30.5678 39.0748 30.7071 38.9981 30.838C38.9215 30.9688 38.8192 31.0659 38.6915 31.1418C38.5637 31.2178 38.4231 31.2515 38.2783 31.2515C38.1335 31.2515 37.9887 31.2136 37.8609 31.1418V31.1376Z" fill="#FFD5C8"/>
<path id="Vector_31" d="M40.9915 30.8253C40.557 30.5383 40.2248 30.1163 39.9948 29.5677C39.7648 29.019 39.6498 28.3522 39.6498 27.5799C39.6498 26.8075 39.7648 26.145 39.9948 25.5921C40.2248 25.0392 40.557 24.6214 40.9915 24.3302C41.4259 24.039 41.9455 23.8955 42.5461 23.8955C43.1467 23.8955 43.662 24.039 44.0965 24.3302C44.5309 24.6214 44.8674 25.0392 45.1017 25.5921C45.3359 26.145 45.4509 26.8075 45.4509 27.5799C45.4509 28.3522 45.3359 29.0232 45.1059 29.5719C44.8759 30.1205 44.5395 30.5426 44.105 30.8295C43.6706 31.1165 43.1509 31.26 42.5461 31.26C41.9413 31.26 41.4259 31.1165 40.9915 30.8253ZM43.283 29.7576C43.4917 29.5761 43.6493 29.3018 43.7557 28.9346C43.8622 28.5674 43.9176 28.1159 43.9133 27.5756C43.9133 27.0397 43.858 26.5923 43.7472 26.2209C43.6365 25.8495 43.4789 25.5752 43.2744 25.3937C43.07 25.2123 42.8272 25.1152 42.5461 25.1152C42.265 25.1152 42.0222 25.208 41.8178 25.3937C41.6133 25.5794 41.4557 25.8537 41.345 26.2209C41.2342 26.5881 41.1746 27.0397 41.1746 27.5756C41.1746 28.1116 41.23 28.5717 41.345 28.9346C41.46 29.2976 41.6133 29.5761 41.8178 29.7576C42.0222 29.939 42.2607 30.0277 42.5504 30.0277C42.84 30.0277 43.0785 29.939 43.2872 29.7576H43.283Z" fill="#FFD5C8"/>
</g>
</g>
</g>
<defs>
<clipPath id="clip0_3_207">
<rect width="164" height="38" fill="white"/>
</clipPath>
</defs>
</svg>
