<svg width="58" height="33" viewBox="0 0 58 33" fill="none" xmlns="http://www.w3.org/2000/svg">
<g id="Isolation_Mode" clip-path="url(#clip0_3_151)">
<path id="Vector" d="M46.7859 20.9093C46.8959 20.1539 46.947 19.4024 46.947 18.6788C46.947 15.6969 46.1297 12.8302 44.5894 10.393C43.5049 8.67542 42.0668 7.22024 40.4244 6.18253C37.7878 4.51663 34.6287 3.96 31.6503 4.65181C29.6621 1.72952 26.5658 0 23.2849 0C18.1139 0 13.7642 4.16675 12.9037 9.81253C12.0904 9.58591 11.2574 9.46663 10.4126 9.46663C4.66798 9.46663 0 14.7466 0 21.2353C0 24.0304 0.888016 26.7419 2.51473 28.8889C3.11984 29.6881 3.81532 30.3918 4.57367 30.9763C6.30255 32.3002 8.3222 33.004 10.4086 33.004L36.5304 32.7535L36.6915 32.7296C39.7917 32.7336 57.1473 33.004 57.9489 32.4633C58.8919 31.8271 46.2004 24.8971 46.7898 20.9133L46.7859 20.9093Z" fill="#5F30E2"/>
</g>
<defs>
<clipPath id="clip0_3_151">
<rect width="58" height="33" fill="white"/>
</clipPath>
</defs>
</svg>
